<?xml version="1.0" encoding="iso-8859-1"?>
<!-- Generator: Adobe Illustrator 16.0.4, SVG Export Plug-In . SVG Version: 6.00 Build 0)  -->
<!DOCTYPE svg PUBLIC "-//W3C//DTD SVG 1.1//EN" "http://www.w3.org/Graphics/SVG/1.1/DTD/svg11.dtd">
<svg version="1.1" id="Layer_1" xmlns="http://www.w3.org/2000/svg" xmlns:xlink="http://www.w3.org/1999/xlink" x="0px" y="0px"
	 width="80px" height="80px" viewBox="0 0 80 80" style="enable-background:new 0 0 80 80;" xml:space="preserve">
<rect style="fill:none;" width="80" height="80"/>
<path style="fill:#D9D9D9;" d="M65.059,24.915c-1.6-3.526-2.891-4.834-4.123-7.394s-4.014-7.06-4.947-7.91
	C55.051,8.76,55.09,8.127,53.096,7.51c-1.992-0.62-7.576-0.657-8.467-2.546C43.738,3.076,43.195,0,43.195,0l-5.812,0.378
	c0,0,0.082,3.705-0.781,5.31c-0.862,1.604-6.305,2.922-7.928,3.471c-1.624,0.548-2.894,1.467-3.804,2.673
	c-0.909,1.207-1.937,6.116-3.18,12.188c-1.243,6.073-1.894,11.825-1.975,12.555c-0.081,0.729-1.006,2.323-1.702,4.539
	c-0.701,2.229-1.554,4.884-2.299,7.73c-0.704,2.689-1.893,7.187-2.542,9.672c-0.785,3.012-1.605,5.095-1.752,5.598
	c-0.281,0.957-0.515,1.483-1.028,1.963c0,0-1.825,1.723-2.339,2.248c-0.515,0.526-1.918,2.728-2.199,2.919
	c-0.281,0.191-1.076,0.526-0.702,0.861s1.216,0.048,1.59-0.24c0.375-0.286,1.451-1.243,1.451-1.243s0.515-0.431,0.421,0.287
	s-0.702,3.827-0.702,4.832c0,1.006-0.141,2.824,0.562,2.824c0.701,0,0.794-1.196,0.748-1.771c-0.046-0.574,0.094-2.728,0.234-3.207
	c0.14-0.478,0.655-0.478,0.655,0.097c0,0.573-0.094,4.642-0.094,4.642s-0.093,1.388,0.562,1.388c0.655,0,0.608-0.67,0.608-1.054
	c0-0.383-0.047-3.875-0.047-3.875s0.047-1.34,0.328-1.244c0.281,0.095,0.375,0.288,0.375,1.005c0,0.718,0.047,3.493,0.047,3.637
	s0,1.052,0.608,1.052c0.608,0,0.421-0.621,0.421-0.957c0-0.334-0.094-2.822-0.094-2.822s-0.047-2.25,0.094-2.25
	c0.14,0,0.608-0.382,0.561,0.336c0.047,1.244,0.141,2.344,0.188,2.488c0.046,0.144,0.046,1.101,0.561,1.101
	c0.516,0,0.422-1.053,0.282-1.483c-0.094-1.389-0.133-2.944,0.047-3.541c0.187-0.623,0.468-1.674,0.515-2.584
	c0.14-2.249-0.188-3.35,0.093-3.924c0.28-0.573,0.608-1.291,1.123-2.439s2.775-6.425,3.208-8.101
	c0.433-1.675,4.27-9.997,4.27-12.321c0-2.323,0.756-4.053,0.973-5.188c0.217-1.135,2.601-7.071,2.916-8.012
	c0.315-0.94,1.327,0,2.085,3.918c0.758,3.918,0.486,4.7,0.379,7.963c-0.106,3.261-1.221,7.568-2.306,10.616
	c-1.084,3.046-3.065,7.456-2.9,13.587c0.135,4.973,1.08,10.402,1.843,14.381h12.889c0.199-3.216,0.448-7.095,0.484-7.38
	c0.372,0.255-0.526,0.506,0.844-0.012c0.244,1.436,0.597,5,0.81,7.392h12.914c0.492-5.611,0.896-11.741,0.842-14.851
	c-0.01-0.522-0.041-1.032-0.082-1.536c0.176-0.098,0.328-0.214,0.434-0.284c0.318-0.212,0.912-1.163,2.721-1.961
	c1.807-0.797,1.883-3.495,1.883-3.495c3.27-3.907,5.213-7.481,6.133-9.498s4.297-8.848,4.455-11.043
	c0.158-2.196-1.244-3.175-2.064-4.862C68.193,30.783,66.656,28.441,65.059,24.915z M56.684,60.844
	c-0.191,0.233-0.957,0.997-0.957,0.997s-0.189,0.14-0.428,0.339c-0.035-0.254-0.074-0.506-0.115-0.756
	c0.646-0.577,1.252-1.092,1.447-1.178C57.109,60.033,56.877,60.611,56.684,60.844z M64.201,41.036
	c-0.695,1.287-2.145,6.966-5.23,12.725c-0.957,1.223-2.021,1.967-2.021,1.967s-0.584,0-2.232,0.159
	c-0.291,0.027-0.594,0.102-0.898,0.205c-0.689-2.048-1.418-3.773-1.842-5.115c-0.949-3.014-1.514-5.706-1.68-9.373
	c-0.168-3.667,0.527-10.684,0.697-11.941c0.273-2.046,1.008-2.446,1.744-3.35c0.84-1.03,1.088-2.744,2.227-2.772
	c0.344-0.008,1.326-0.347,3.033,2.133c1.705,2.48,3.498,4.414,4.518,5.956c1.018,1.543,2.732,4.944,2.654,5.752
	C65.094,38.188,64.965,39.624,64.201,41.036z"/>
<path style="fill:none;stroke:#000000;stroke-width:3;stroke-linecap:round;stroke-linejoin:round;stroke-miterlimit:10;" d="
	M53.598,7.683c0,0,2.437,1.161,4.79,5.304s12.544,22.014,12.703,23.931s-9.337,19.514-10.727,21.879"/>
<g>
</g>
<g>
</g>
<g>
</g>
<g>
</g>
<g>
</g>
<g>
</g>
<g>
</g>
<g>
</g>
<g>
</g>
<g>
</g>
<g>
</g>
<g>
</g>
<g>
</g>
<g>
</g>
<g>
</g>
</svg>
