<?xml version="1.0" encoding="iso-8859-1"?>
<!-- Generator: Adobe Illustrator 16.0.4, SVG Export Plug-In . SVG Version: 6.00 Build 0)  -->
<!DOCTYPE svg PUBLIC "-//W3C//DTD SVG 1.1//EN" "http://www.w3.org/Graphics/SVG/1.1/DTD/svg11.dtd">
<svg version="1.1" id="Layer_1" xmlns="http://www.w3.org/2000/svg" xmlns:xlink="http://www.w3.org/1999/xlink" x="0px" y="0px"
	 width="80px" height="80px" viewBox="0 0 80 80" style="enable-background:new 0 0 80 80;" xml:space="preserve">
<path style="fill:#D9D9D9;" d="M77.75,78.936c-1.167-5.306-2.739-7.489-2.831-9.773c-0.091-2.285-2.703-13.041-4.627-22.451
	c-1.923-9.409-2.296-17.996-4.389-19.911c-2.095-1.915-0.936-1.671-4.224-2.948c-3.289-1.281-12.698-2.002-13.979-5.294
	c-1.28-3.289-1.833-8.54-1.833-8.54l-9.844-0.05c0,0-0.299,6.259-1.944,8.863c-1.644,2.604-10.977,4.182-13.78,4.914
	s-5.053,2.132-6.73,4.059c-1.676,1.927-2.529,12.243-4.63,22.509C6.839,60.579,5.739,70.302,5.603,71.536
	c-0.137,1.232-1.701,3.928-2.878,7.672C2.644,79.467,2.559,79.736,2.476,80H12.56c0.313-2.954,1.229-5.235,1.53-6.819
	c0.367-1.919,3.755-11.954,4.288-13.544s2.884,0,4.166,6.624c1.282,6.621,0.822,7.945,0.641,13.459
	c-0.003,0.092-0.01,0.188-0.014,0.28h34.127c-0.282-6.175-0.567-9.801,1.18-16.305c1.749-6.516,2.951-4.378,2.951-4.378
	s3.544,7.285,3.727,8.107c0.182,0.822,1.461,4.749,2.009,6.575c0.441,1.473,0.662,4.021,0.862,6H78
	C77.914,79.652,77.831,79.299,77.75,78.936z"/>
<rect style="fill:none;" width="80" height="80"/>
<path style="fill:none;stroke:#000000;stroke-width:3;stroke-linecap:round;stroke-linejoin:round;stroke-miterlimit:10;" d="
	M17.12,24.985c0,0,13.568-4.151,24.38-4.151s22.613,4.151,22.613,4.151"/>
<g>
</g>
<g>
</g>
<g>
</g>
<g>
</g>
<g>
</g>
<g>
</g>
<g>
</g>
<g>
</g>
<g>
</g>
<g>
</g>
<g>
</g>
<g>
</g>
<g>
</g>
<g>
</g>
<g>
</g>
</svg>
