<?xml version="1.0" encoding="iso-8859-1"?>
<!-- Generator: Adobe Illustrator 16.0.4, SVG Export Plug-In . SVG Version: 6.00 Build 0)  -->
<!DOCTYPE svg PUBLIC "-//W3C//DTD SVG 1.1//EN" "http://www.w3.org/Graphics/SVG/1.1/DTD/svg11.dtd">
<svg version="1.1" id="Layer_1" xmlns="http://www.w3.org/2000/svg" xmlns:xlink="http://www.w3.org/1999/xlink" x="0px" y="0px"
	 width="80px" height="80px" viewBox="0 0 80 80" style="enable-background:new 0 0 80 80;" xml:space="preserve">
<rect style="fill:none;" width="80" height="80"/>
<path style="fill:#D9D9D9;" d="M8.521,5.642C7.566,7.419,3.716,9.015,0,10.256V80h35.458c-0.155-1.462-0.272-2.989-0.346-4.619
	c-0.325-7.12,1.024-20.744,1.353-23.188c0.532-3.973,1.96-4.749,3.39-6.503c1.63-2.002,2.112-5.329,4.32-5.384
	c0.67-0.017,2.577-0.674,5.89,4.142c3.313,4.814,6.794,8.569,8.772,11.564s5.308,9.601,5.156,11.168
	c-0.149,1.565-0.4,4.356-1.882,7.098c-0.492,0.91-1.179,2.954-2.142,5.722h10.804c2.232-4.946,4.512-10.442,4.69-12.914
	c0.306-4.264-2.415-6.165-4.008-9.44s-4.577-7.823-7.68-14.67c-3.104-6.848-5.613-9.387-8.006-14.355
	c-2.393-4.97-7.792-13.708-9.608-15.36c-1.817-1.653-1.742-2.881-5.613-4.081c-3.871-1.204-14.711-1.275-16.441-4.944
	C23.516,2.982,23.006,1.461,22.587,0H9.849C9.656,2.023,9.274,4.243,8.521,5.642z"/>
<g>
	<path style="fill:none;" d="M51.603,46.598c0.015,0.022,0.038,0.037,0.053,0.06c-0.024-0.037-0.056-0.083-0.09-0.134
		C51.579,46.548,51.588,46.574,51.603,46.598z"/>
	<path d="M64.796,38.346c-0.968-1.547-2.742-2.446-4.88-2.494c1.125,1.935,2.336,4.085,2.336,4.085
		c1.006,1.608-0.562,4.402-3.504,6.242c-1.6,1-3.275,1.512-4.633,1.512c-1.029,0-1.856-0.311-2.349-0.908l-0.02,0.013
		c0,0-0.032-0.049-0.092-0.138c-0.015-0.022-0.038-0.037-0.053-0.06c-0.015-0.023-0.023-0.05-0.037-0.074
		c-0.407-0.601-1.461-2.113-2.707-3.594c-0.776,1.84-0.764,3.715,0.2,5.258c0.996,1.591,2.838,2.503,5.057,2.503
		c1.983,0,4.194-0.699,6.224-1.968C64.824,45.916,66.74,41.456,64.796,38.346z"/>
	<path d="M51.747,46.795l0.02-0.013c-0.036-0.043-0.079-0.079-0.111-0.125C51.715,46.746,51.747,46.795,51.747,46.795z"/>
	<path style="fill:#999999;" d="M55.104,40.354c1.6-1,3.275-1.511,4.633-1.511c1.141,0,2.056,0.36,2.515,1.094
		c0,0-1.211-2.15-2.336-4.085c-0.061-0.001-0.117-0.009-0.178-0.009c-1.984,0-4.194,0.699-6.224,1.967
		c-2.261,1.414-3.866,3.249-4.656,5.12c1.246,1.48,2.3,2.993,2.707,3.594C50.648,44.904,52.208,42.165,55.104,40.354z"/>
</g>
<g>
</g>
<g>
</g>
<g>
</g>
<g>
</g>
<g>
</g>
<g>
</g>
<g>
</g>
<g>
</g>
<g>
</g>
<g>
</g>
<g>
</g>
<g>
</g>
<g>
</g>
<g>
</g>
<g>
</g>
</svg>
