<?xml version="1.0" encoding="iso-8859-1"?>
<!-- Generator: Adobe Illustrator 16.0.4, SVG Export Plug-In . SVG Version: 6.00 Build 0)  -->
<!DOCTYPE svg PUBLIC "-//W3C//DTD SVG 1.1//EN" "http://www.w3.org/Graphics/SVG/1.1/DTD/svg11.dtd">
<svg version="1.1" id="Layer_1" xmlns="http://www.w3.org/2000/svg" xmlns:xlink="http://www.w3.org/1999/xlink" x="0px" y="0px"
	 width="80px" height="80px" viewBox="0 0 80 80" style="enable-background:new 0 0 80 80;" xml:space="preserve">
<rect style="fill:none;" width="80" height="80"/>
<path style="fill:#D9D9D9;" d="M36.562,3.373c-0.973,1.541-6.494,2.474-8.152,2.907c-1.658,0.434-2.989,1.261-3.98,2.401
	c-0.993,1.14-1.496,7.243-2.739,13.315c-1.244,6.073-1.894,11.825-1.975,12.555c-0.081,0.729-1.006,2.324-1.703,4.539
	c-0.701,2.229-1.554,4.884-2.298,7.73c-0.704,2.689-1.893,7.187-2.542,9.672c-0.785,3.011-1.605,5.093-1.752,5.598
	c-0.28,0.958-0.515,1.483-1.028,1.963c0,0-1.825,1.721-2.34,2.248c-0.514,0.526-1.918,2.727-2.198,2.92
	c-0.281,0.19-1.076,0.525-0.701,0.859c0.375,0.336,1.216,0.048,1.59-0.238c0.375-0.287,1.451-1.244,1.451-1.244
	s0.515-0.432,0.421,0.286c-0.094,0.72-0.702,3.828-0.702,4.834c0,1.004-0.141,2.822,0.562,2.822c0.701,0,0.794-1.196,0.748-1.77
	c-0.046-0.574,0.094-2.728,0.234-3.206c0.141-0.479,0.655-0.479,0.655,0.096c0,0.572-0.093,4.641-0.093,4.641
	s-0.093,1.389,0.561,1.389c0.655,0,0.608-0.671,0.608-1.053c0-0.384-0.045-3.877-0.045-3.877s0.045-1.339,0.327-1.243
	c0.281,0.096,0.375,0.287,0.375,1.004c0,0.718,0.046,3.494,0.046,3.637c0,0.144,0,1.052,0.608,1.052
	c0.609,0,0.422-0.619,0.422-0.956c0-0.335-0.094-2.823-0.094-2.823s-0.046-2.249,0.094-2.249c0.14,0,0.608-0.382,0.56,0.336
	c0.047,1.243,0.14,2.344,0.187,2.487s0.047,1.101,0.562,1.101c0.515,0,0.421-1.052,0.281-1.482c-0.093-1.39-0.132-2.945,0.047-3.542
	c0.187-0.621,0.467-1.674,0.515-2.582c0.14-2.249-0.188-3.351,0.093-3.925c0.28-0.574,0.608-1.291,1.123-2.44
	c0.514-1.147,2.774-6.425,3.207-8.099c0.433-1.676,4.27-9.998,4.27-12.323c0-2.323,0.757-4.052,0.973-5.188
	c0.218-1.135,2.222-7.071,2.537-8.012c0.316-0.94,1.706,0,2.465,3.919c0.758,3.917,0.486,4.7,0.378,7.962
	c-0.106,3.261-1.221,7.569-2.306,10.616s-3.065,7.457-2.9,13.587C25.069,69.48,26.363,75.999,27.146,80h12.373
	c0.199-3.309,0.563-9.053,0.607-9.403c0.372,0.255-0.526,0.506,0.844-0.013c0.337,1.978,0.877,7.992,0.977,9.416h12.562
	c0.572-6.093,1.088-13.385,1.025-16.873c-0.11-6.22-2.605-11.159-3.557-14.174s-1.513-5.706-1.681-9.373
	c-0.168-3.667-0.339-5.812,0.697-9.667c1.034-3.854,1.746-2.591,1.746-2.591s2.097,4.312,2.204,4.797
	c0.107,0.487,0.863,2.81,1.188,3.89c0.325,1.081,0.446,3.142,0.596,4.323c0.352,2.783,1.515,4.326,2.055,6.163
	c0.541,1.838,4.396,12.236,4.808,13.076c0.41,0.842,1.689,3.903,1.964,5.238c0.273,1.334-0.047,2.815,0.503,4.94
	c0.09,0.84,0.09,2.372,0.09,2.372s-0.319,3.458,0.228,3.558c0.549,0.099,0.502-0.297,0.595-0.791
	c0.091-0.494,0.182-2.175,0.182-2.569s0.093-0.89,0.32-0.839c0.229,0.049,0.274,0.246,0.229,0.789s0,4.299,0,4.299
	s-0.137,1.384,0.548,1.334c0.684-0.049,0.456-1.334,0.456-1.334l0.092-2.964c0,0-0.184-1.729,0.272-1.729
	c0.458,0,0.366,0.791,0.366,0.791l-0.092,5.138c0,0-0.091,0.742,0.595,0.742c0.683,0,0.639-0.741,0.639-0.841
	c0-0.099-0.136-2.273-0.136-3.162c0-0.89,0.045-2.273,0.045-2.273s0-0.593,0.364-0.493c0.274,0.148,0.32,1.036,0.274,1.532
	c0.091,0.889,0.184,1.729,0.184,1.729s-0.093,2.026,0.593,2.026c0.685,0,0.503-1.581,0.503-1.581s0-2.372-0.046-3.163
	c-0.047-0.79-0.365-2.075-0.457-2.618c-0.092-0.544-0.092-0.988,0.32-0.692c0.41,0.296,1.597,1.779,2.557,1.779
	c0.957,0,0.775-0.938,0.228-0.938c-0.547,0-0.959-1.137-1.416-1.73c-0.455-0.592-2.237-3.112-2.922-3.606
	c-0.684-0.494-1.187-0.841-1.507-2.174c-0.32-1.334-1.613-4.632-3.302-11.467s-2.771-8.805-3.462-11.943
	c-0.69-3.138-1.621-4.43-1.676-5.782c-0.053-1.352-1.598-7.715-2.736-13.281C56.847,14.3,56.625,9.22,55.387,8.087
	s-0.553-0.989-2.499-1.745c-1.945-0.757-7.511-1.185-8.269-3.132C44.246,2.252,43.978,1.012,43.802,0h-6.274
	C37.365,1.153,37.073,2.562,36.562,3.373z"/>
<g>
	<path d="M52.556,18.407c0.329,2.166,0.31,3.971,0.31,3.971c0,1.448-5.592,2.622-12.49,2.622c-6.898,0-12.49-1.174-12.49-2.622
		c0,0-0.02-1.83,0.14-3.901c-2.083,0.928-3.14,2.228-3.14,3.901c0,3.73,5.211,5.622,15.49,5.622c10.278,0,15.49-1.892,15.49-5.622
		C55.865,20.662,54.748,19.34,52.556,18.407z"/>
	<path style="fill:#999999;" d="M27.885,22.378c0-1.448,5.592-2.622,12.49-2.622c6.898,0,12.49,1.174,12.49,2.622
		c0,0,0.02-1.805-0.31-3.971c-2.573-1.095-6.632-1.651-12.181-1.651c-5.669,0-9.788,0.579-12.351,1.721
		C27.865,20.548,27.885,22.378,27.885,22.378z"/>
</g>
<g>
</g>
<g>
</g>
<g>
</g>
<g>
</g>
<g>
</g>
<g>
</g>
<g>
</g>
<g>
</g>
<g>
</g>
<g>
</g>
<g>
</g>
<g>
</g>
<g>
</g>
<g>
</g>
<g>
</g>
</svg>
