<?xml version="1.0" encoding="iso-8859-1"?>
<!-- Generator: Adobe Illustrator 16.0.4, SVG Export Plug-In . SVG Version: 6.00 Build 0)  -->
<!DOCTYPE svg PUBLIC "-//W3C//DTD SVG 1.1//EN" "http://www.w3.org/Graphics/SVG/1.1/DTD/svg11.dtd">
<svg version="1.1" id="Layer_1" xmlns="http://www.w3.org/2000/svg" xmlns:xlink="http://www.w3.org/1999/xlink" x="0px" y="0px"
	 width="80px" height="80px" viewBox="0 0 80 80" style="enable-background:new 0 0 80 80;" xml:space="preserve">
<path style="fill:#D9D9D9;" d="M77.75,78.936c-1.167-5.306-2.739-7.489-2.831-9.773c-0.091-2.285-2.703-13.041-4.627-22.451
	c-1.923-9.409-2.296-17.996-4.389-19.911c-2.095-1.915-0.936-1.671-4.224-2.948c-3.289-1.281-12.698-2.002-13.979-5.294
	c-1.28-3.289-1.833-8.54-1.833-8.54l-9.844-0.05c0,0-0.299,6.259-1.944,8.863c-1.644,2.604-10.977,4.182-13.78,4.914
	s-5.053,2.132-6.73,4.059c-1.676,1.927-2.529,12.243-4.63,22.509C6.839,60.579,5.739,70.302,5.603,71.536
	c-0.137,1.232-1.701,3.928-2.878,7.672C2.644,79.467,2.559,79.736,2.476,80H12.56c0.313-2.954,1.229-5.235,1.53-6.819
	c0.367-1.919,3.755-11.954,4.288-13.544s2.884,0,4.166,6.624c1.282,6.621,0.822,7.945,0.641,13.459
	c-0.003,0.092-0.01,0.188-0.014,0.28h34.127c-0.282-6.175-0.567-9.801,1.18-16.305c1.749-6.516,2.951-4.378,2.951-4.378
	s3.544,7.285,3.727,8.107c0.182,0.822,1.461,4.749,2.009,6.575c0.441,1.473,0.662,4.021,0.862,6H78
	C77.914,79.652,77.831,79.299,77.75,78.936z"/>
<rect style="fill:none;" width="80" height="80"/>
<g>
	<path style="fill:none;" d="M48.42,19.691c0.032,0.102,0.062,0.206,0.091,0.313C48.511,19.898,48.474,19.794,48.42,19.691z"/>
	<path style="fill:none;" d="M33.511,20.005c0.021-0.1,0.051-0.19,0.076-0.286C33.542,19.812,33.511,19.908,33.511,20.005z"/>
	<path d="M46.83,15.533c0.484,1.865,1.166,2.777,1.59,4.159c0.054,0.103,0.091,0.207,0.091,0.313c0,1.176-3.358,2.13-7.5,2.13
		c-4.142,0-7.5-0.954-7.5-2.13c0-0.097,0.031-0.192,0.076-0.286c0.4-1.583,1.17-2.783,1.704-4.213
		c-2.538,0.649-4.779,1.943-4.779,4.5c0,4.63,7.343,5.13,10.5,5.13s10.5-0.5,10.5-5.13C51.511,17.481,49.326,16.19,46.83,15.533z"/>
	<path style="fill:#999999;" d="M41.011,17.875c3.766,0,6.874,0.789,7.409,1.816c-0.424-1.382-1.105-2.294-1.59-4.159
		c-2.084-0.548-4.383-0.657-5.819-0.657c-1.414,0-3.664,0.104-5.721,0.63c-0.533,1.43-1.304,2.63-1.704,4.213
		C34.08,18.678,37.211,17.875,41.011,17.875z"/>
</g>
<g>
</g>
<g>
</g>
<g>
</g>
<g>
</g>
<g>
</g>
<g>
</g>
<g>
</g>
<g>
</g>
<g>
</g>
<g>
</g>
<g>
</g>
<g>
</g>
<g>
</g>
<g>
</g>
<g>
</g>
</svg>
