<?xml version="1.0" encoding="iso-8859-1"?>
<!-- Generator: Adobe Illustrator 16.0.4, SVG Export Plug-In . SVG Version: 6.00 Build 0)  -->
<!DOCTYPE svg PUBLIC "-//W3C//DTD SVG 1.1//EN" "http://www.w3.org/Graphics/SVG/1.1/DTD/svg11.dtd">
<svg version="1.1" id="Layer_1" xmlns="http://www.w3.org/2000/svg" xmlns:xlink="http://www.w3.org/1999/xlink" x="0px" y="0px"
	 width="80px" height="80px" viewBox="0 0 80 80" style="enable-background:new 0 0 80 80;" xml:space="preserve">
<rect style="fill:none;" width="80" height="80"/>
<g>
	<path style="fill:#D9D9D9;" d="M0,80h13.373c6.446-8.188,19.595-25.649,20.731-27.514c1.368-2.245,6.687-9.903,9.433-12.571
		c2.742-2.667,6.733-4.149,10.936-8.664c1.85-1.485,5.477-3.802,5.477-3.802s8.673-4.475,8.078-5.921
		c-0.595-1.447-1.462-0.74-2.771-0.21c-1.308,0.533-5.423,2.858-6.357,3.455c-0.938,0.599-2.246,1.129-2.473,0.513
		c-0.229-0.614,0.169-1.021,1.527-1.735c1.354-0.713,10.176-6.501,10.176-6.501s3.481-1.769,2.329-3.313
		c-1.151-1.548-3.85,0.934-3.85,0.934l-7.156,4.268c0,0-3.817,3.049-4.508,1.969c-0.691-1.081,1.32-2.062,1.32-2.062l12.303-7.554
		c0,0,1.893-0.906,0.857-2.528c-1.036-1.62-2.722-0.392-2.955-0.243c-0.235,0.15-5.176,3.76-7.281,5.106
		c-2.105,1.345-5.448,3.331-5.448,3.331s-1.404,0.897-1.725-0.116c-0.062-0.873,1.974-2.327,3.214-2.966
		c1.966-1.56,3.817-3.049,3.817-3.049s4.934-2.846,3.897-4.47c-1.035-1.621-4.501,1.202-4.501,1.202s-5.616,3.588-7.419,4.892
		c-1.803,1.305-4.36,4.003-5.509,5.041c-1.149,1.041-2.202,1.713-2.121,0.292c0.08-1.419,1.794-6.471,0.343-8.744
		c-1.45-2.269-3.396-0.418-2.565,0.881c0.827,1.295-1.242,3.988-1.955,5.966c-0.715,1.976-3.986,10.005-4.12,12.375
		c-0.134,2.367-0.194,4.081-2.869,6.854c-2.674,2.775-8.522,10.827-22.15,25.163C5.83,64.746,2.611,68.361,0,71.414V80z"/>
</g>
<g>
	<path d="M42.059,41.611c-0.332,0.392-0.858,0.577-1.501,0.577c-1.331,0-3.166-0.796-4.839-2.216
		c-2.481-2.106-3.666-4.788-2.646-5.989c0.098-0.115,0.217-0.208,0.347-0.288c0.391-0.587,1.157-1.868,1.475-3.271
		c-0.106-0.005-0.215-0.02-0.32-0.02c-1.547,0-2.893,0.582-3.789,1.637c-2.195,2.586-0.937,6.883,2.992,10.218
		c2.193,1.861,4.665,2.929,6.781,2.929c1.546,0,2.892-0.58,3.788-1.635c1.118-1.318,1.336-3.08,0.766-4.932
		C43.604,39.909,42.059,41.611,42.059,41.611z"/>
	<path style="fill:#999999;" d="M41.354,33.334c-2.084-1.769-4.417-2.809-6.459-2.909c-0.318,1.403-1.084,2.683-1.475,3.271
		c0.31-0.192,0.701-0.29,1.155-0.29c1.331,0,3.166,0.796,4.838,2.216c2.481,2.106,3.666,4.788,2.646,5.99
		c0,0,1.546-1.703,3.052-2.989C44.562,36.838,43.281,34.97,41.354,33.334z"/>
</g>
<g>
</g>
<g>
</g>
<g>
</g>
<g>
</g>
<g>
</g>
<g>
</g>
<g>
</g>
<g>
</g>
<g>
</g>
<g>
</g>
<g>
</g>
<g>
</g>
<g>
</g>
<g>
</g>
<g>
</g>
</svg>
